<?xml version="1.0" standalone="no"?>
<!DOCTYPE svg PUBLIC "-//W3C//DTD SVG 20010904//EN"
 "http://www.w3.org/TR/2001/REC-SVG-20010904/DTD/svg10.dtd">
<svg version="1.0" xmlns="http://www.w3.org/2000/svg"
 width="761.000000pt" height="761.000000pt" viewBox="0 0 761.000000 761.000000"
 preserveAspectRatio="xMidYMid meet">
<metadata>
Created by potrace 1.11, written by Peter Selinger 2001-2013
</metadata>
<g transform="translate(0.000000,761.000000) scale(0.100000,-0.100000)"
fill="#000000" stroke="none">
<path d="M4310 4972 c0 -4 -8 -9 -17 -10 -32 -3 -48 -7 -60 -15 -7 -5 -17 -5
-23 -2 -5 3 -10 1 -10 -4 0 -6 -3 -10 -7 -10 -5 1 -11 0 -15 -1 -16 -5 -28 -8
-44 -9 -8 0 -13 -5 -10 -9 3 -5 -5 -8 -17 -7 -12 1 -33 -3 -47 -10 -14 -7 -33
-11 -42 -10 -10 2 -18 -1 -18 -7 0 -6 -7 -8 -15 -4 -8 3 -21 -2 -30 -10 -8 -9
-15 -12 -15 -8 0 3 -6 1 -14 -5 -11 -9 -16 -9 -21 0 -6 8 -9 8 -14 0 -7 -11
-38 -21 -68 -23 -7 -1 -15 -8 -17 -15 -4 -10 -11 -11 -25 -4 -14 8 -20 8 -23
-1 -2 -6 -19 -12 -37 -13 -18 -1 -36 -6 -39 -11 -7 -9 -24 -15 -54 -17 -10 -1
-18 -4 -18 -8 0 -4 -7 -10 -16 -13 -8 -3 -12 -2 -9 4 3 5 -15 1 -40 -10 -26
-11 -55 -20 -65 -20 -10 0 -22 -5 -25 -10 -4 -6 -10 -8 -15 -5 -5 3 -11 1 -15
-5 -4 -6 -10 -8 -15 -5 -5 3 -25 -4 -45 -15 -20 -11 -33 -16 -30 -10 5 8 1 8
-14 1 -12 -6 -30 -16 -42 -22 -17 -8 -20 -8 -14 3 6 10 5 11 -6 1 -7 -7 -21
-13 -32 -13 -10 0 -16 -4 -12 -9 3 -6 -3 -8 -14 -6 -10 2 -31 -3 -47 -11 -15
-8 -34 -12 -41 -10 -7 3 -13 1 -13 -4 0 -6 -6 -10 -14 -10 -8 0 -27 -5 -43
-12 -15 -6 -37 -13 -47 -15 -11 -2 -25 -8 -31 -13 -7 -5 -15 -7 -18 -4 -6 6
-53 -11 -97 -35 -8 -4 -23 -7 -32 -5 -10 1 -18 -2 -18 -7 0 -5 -9 -9 -19 -9
-11 0 -23 -5 -27 -11 -3 -6 -15 -9 -25 -6 -10 3 -19 1 -21 -5 -2 -5 -13 -10
-26 -11 -12 0 -22 -5 -22 -9 0 -4 -3 -7 -7 -7 -17 3 -72 -14 -68 -21 2 -4 -9
-6 -25 -5 -17 1 -30 -2 -30 -7 0 -4 -7 -8 -15 -8 -9 0 -34 -9 -56 -19 -21 -11
-36 -14 -33 -8 5 8 2 7 -7 0 -7 -7 -21 -13 -31 -13 -10 0 -18 -5 -18 -11 0 -6
-9 -9 -20 -6 -11 3 -20 1 -20 -3 0 -10 -56 -30 -64 -23 -3 4 -6 1 -6 -6 0 -7
-4 -9 -10 -6 -5 3 -10 2 -10 -2 0 -5 -8 -9 -17 -9 -26 -1 -47 -8 -54 -17 -3
-4 -19 -10 -34 -13 -16 -3 -35 -10 -42 -15 -7 -6 -17 -8 -23 -4 -5 3 -10 2
-10 -3 0 -9 -55 -26 -72 -23 -5 0 -8 -4 -8 -11 0 -6 -3 -8 -7 -5 -3 4 -17 0
-30 -8 -13 -9 -23 -13 -23 -9 0 4 -7 0 -17 -7 -9 -8 -24 -13 -35 -11 -10 2
-18 -2 -18 -7 0 -6 -11 -11 -25 -11 -14 0 -25 -5 -25 -12 0 -6 -3 -9 -6 -5 -4
3 -19 0 -34 -8 -15 -8 -30 -11 -34 -8 -3 4 -6 1 -6 -6 0 -7 -4 -9 -10 -6 -5 3
-10 2 -10 -4 0 -6 -7 -8 -15 -5 -8 4 -15 1 -15 -6 0 -7 -7 -10 -15 -6 -8 3
-15 1 -15 -4 0 -6 -9 -10 -20 -10 -11 0 -20 -5 -20 -11 0 -5 -4 -8 -9 -5 -10
7 -74 -18 -67 -25 3 -3 -7 -6 -21 -7 -14 -1 -31 -6 -38 -12 -6 -5 -15 -7 -18
-3 -4 3 -7 1 -7 -5 0 -6 -7 -9 -15 -6 -8 4 -15 1 -15 -5 0 -6 -7 -11 -15 -11
-8 0 -15 -5 -15 -11 0 -5 -5 -7 -11 -3 -6 3 -25 -4 -41 -16 -17 -13 -28 -18
-24 -11 4 6 3 11 -2 11 -6 0 -12 -7 -16 -15 -3 -8 -12 -12 -21 -9 -8 3 -15 1
-15 -6 0 -6 -4 -9 -9 -5 -5 3 -12 1 -16 -5 -4 -6 -11 -8 -16 -5 -5 4 -9 1 -9
-5 0 -6 -5 -8 -10 -5 -6 3 -10 1 -10 -6 0 -7 -3 -10 -6 -6 -4 3 -26 -5 -49
-18 -24 -13 -46 -21 -49 -18 -3 4 -6 1 -6 -6 0 -7 -4 -10 -9 -6 -5 3 -17 -3
-27 -12 -10 -10 -20 -17 -23 -15 -12 5 -61 -17 -61 -28 0 -6 -4 -9 -9 -6 -14
9 -42 -5 -34 -17 3 -6 1 -7 -5 -3 -12 7 -72 -20 -84 -38 -4 -6 -8 -8 -8 -3 0
4 -13 1 -30 -8 -16 -8 -33 -16 -37 -16 -5 0 -16 -8 -27 -17 -10 -9 -20 -16
-22 -15 -7 5 -94 -41 -94 -49 0 -4 -8 -8 -18 -8 -10 0 -27 -8 -38 -17 -11 -10
-26 -19 -34 -21 -8 -2 -16 -7 -18 -12 -2 -5 -10 -6 -19 -3 -10 4 -14 2 -10 -4
4 -6 -10 -18 -33 -27 -22 -9 -40 -20 -40 -26 0 -5 -7 -10 -15 -10 -8 0 -24 -8
-35 -17 -11 -10 -23 -17 -25 -15 -3 1 -13 -6 -23 -15 -10 -10 -29 -25 -42 -33
-12 -8 -28 -21 -36 -27 -7 -7 -17 -13 -23 -13 -5 0 -13 -9 -16 -21 -4 -12 -12
-18 -21 -15 -8 3 -14 2 -14 -3 0 -11 -77 -91 -82 -85 -9 8 -3 -102 6 -115 6
-9 5 -12 -2 -7 -7 4 -10 -1 -9 -14 1 -11 6 -20 12 -20 5 0 3 -5 -5 -10 -8 -5
-10 -10 -5 -10 6 0 10 -29 10 -69 0 -38 3 -67 8 -64 4 2 7 -1 7 -6 0 -6 -6
-11 -12 -11 -7 0 -5 -5 5 -11 12 -7 15 -14 8 -22 -12 -15 -12 -29 0 -44 7 -7
6 -14 -1 -18 -6 -3 -7 -12 -3 -18 12 -19 13 -46 3 -52 -6 -4 -3 -17 8 -33 9
-14 16 -27 15 -29 -7 -8 -2 -21 10 -26 8 -3 14 1 14 9 0 7 -5 10 -10 7 -6 -4
-7 -1 -2 7 6 10 11 10 20 -3 15 -21 26 -22 19 -2 -5 11 -2 13 10 9 9 -3 13
-11 9 -18 -3 -6 -1 -6 8 2 19 17 46 15 59 -5 11 -17 11 -17 6 0 -5 16 -1 17
26 13 19 -3 36 0 41 7 6 8 7 6 3 -6 -3 -10 -2 -16 3 -12 5 3 11 0 13 -7 3 -9
6 -9 12 0 4 7 2 12 -4 12 -6 0 -8 5 -4 11 4 8 12 3 21 -12 8 -14 12 -16 9 -6
-5 16 -1 17 26 13 19 -3 36 0 41 7 6 8 7 6 3 -6 -3 -10 -2 -16 3 -12 5 3 12
-1 14 -7 4 -10 6 -10 6 -1 1 9 8 10 29 2 20 -8 24 -7 16 1 -6 6 -20 12 -32 13
-11 0 -19 4 -17 8 6 8 54 -1 61 -12 3 -5 11 -9 17 -9 7 0 6 4 -3 11 -12 8 -11
9 5 6 11 -2 19 -8 18 -13 -1 -5 7 -10 18 -10 19 0 19 1 3 13 -16 12 -16 13 -2
13 9 0 20 -4 23 -10 3 -5 12 -10 18 -10 7 0 6 4 -3 11 -12 8 -11 9 5 6 11 -2
19 -9 18 -15 -2 -7 2 -12 8 -12 6 0 8 7 5 16 -5 12 0 14 22 11 45 -8 57 -12
63 -21 4 -4 10 -3 13 3 4 6 2 11 -3 11 -6 0 -11 6 -11 13 1 6 10 1 22 -13 14
-16 19 -19 15 -7 -4 11 -1 17 9 17 9 0 12 -5 8 -12 -4 -6 -3 -8 4 -4 5 3 12 3
15 -1 2 -5 2 -2 0 5 -2 10 6 12 29 8 19 -3 36 0 41 7 6 8 7 6 3 -6 -3 -10 -2
-16 3 -12 5 3 11 0 13 -7 3 -7 7 -5 11 6 5 11 3 15 -5 10 -6 -4 -8 -3 -5 4 8
12 41 5 77 -16 23 -13 24 -13 6 2 -17 14 -17 16 -4 16 9 0 20 -4 23 -10 3 -5
12 -10 18 -10 7 0 6 4 -3 11 -12 8 -11 9 5 6 11 -2 19 -8 18 -13 -1 -5 7 -10
18 -10 19 0 19 1 3 13 -16 12 -16 13 -2 13 9 0 20 -4 23 -10 3 -5 12 -10 18
-10 7 0 6 4 -3 10 -10 6 -1 8 28 7 26 -1 41 -6 38 -13 -2 -6 2 -11 10 -11 7 0
10 5 7 10 -3 6 2 16 12 24 13 9 14 13 5 13 -9 0 -8 5 6 16 10 8 13 13 7 9 -16
-8 -11 81 5 97 8 8 8 17 1 30 -6 12 -6 18 0 18 6 0 8 7 5 15 -4 8 -1 15 7 15
7 0 10 3 7 6 -4 3 -2 20 3 37 6 18 12 40 14 50 2 9 7 23 12 30 4 6 9 21 10 32
2 10 8 22 15 26 6 4 7 12 4 18 -4 6 -3 11 3 11 6 0 16 18 22 40 8 25 18 40 28
40 14 0 14 2 1 10 -8 5 -10 10 -5 10 9 0 48 56 49 71 1 3 8 13 16 22 30 33 41
47 35 47 -3 0 14 19 36 43 23 23 48 52 56 65 9 12 22 22 30 22 8 0 12 4 8 9
-3 5 4 12 15 16 11 4 18 9 16 13 -2 4 14 18 35 32 21 13 39 28 39 32 0 4 7 8
15 8 9 0 18 7 21 15 4 8 10 15 16 15 5 0 29 14 54 31 24 16 49 27 54 24 6 -3
13 0 16 9 3 8 19 18 35 21 16 4 29 11 29 17 0 6 7 8 15 4 8 -3 15 0 15 5 0 6
9 9 20 6 11 -3 18 -1 14 4 -3 5 0 10 5 10 14 2 30 6 34 9 3 2 40 11 55 12 6 1
12 5 12 9 0 5 7 6 15 3 8 -3 20 -2 27 2 7 5 20 9 28 9 8 0 21 4 28 8 7 5 12 3
12 -5 1 -8 6 -6 15 6 8 11 15 14 15 7 0 -7 5 -9 13 -4 20 12 37 12 37 0 0 -8
3 -8 8 -2 4 6 16 11 27 11 11 0 23 -5 27 -11 5 -6 8 -5 8 4 0 9 8 12 25 9 14
-3 25 -1 25 6 0 7 3 7 8 1 4 -5 35 -10 70 -10 35 1 66 -3 68 -7 3 -4 11 -5 19
-1 9 3 23 -1 32 -8 13 -11 17 -11 21 -1 3 10 7 10 18 1 8 -6 14 -8 14 -4 0 4
7 2 15 -5 8 -6 19 -9 25 -5 5 3 10 1 10 -5 0 -6 5 -8 10 -5 6 4 17 1 25 -5 11
-9 15 -9 15 -1 0 7 10 3 22 -8 11 -11 25 -18 29 -15 5 3 30 -5 56 -17 26 -13
55 -24 63 -25 8 -2 16 -8 18 -14 2 -5 7 -8 12 -5 5 3 16 -2 24 -11 9 -8 16
-13 16 -9 0 3 6 1 13 -5 22 -19 88 -60 95 -60 4 0 15 -8 24 -17 8 -10 25 -25
35 -33 62 -47 103 -86 103 -97 0 -7 7 -13 17 -13 9 0 14 -3 11 -6 -4 -3 6 -18
21 -32 15 -15 39 -44 53 -64 13 -21 27 -35 30 -32 3 2 8 -7 12 -21 4 -14 11
-25 17 -25 6 0 8 -4 5 -9 -3 -4 5 -21 19 -37 13 -15 22 -31 19 -36 -3 -4 0 -8
5 -8 6 0 10 -3 10 -7 -3 -13 25 -73 33 -73 4 0 5 -7 2 -15 -4 -8 -1 -15 5 -15
6 0 8 -7 5 -15 -4 -8 -1 -15 6 -15 7 0 10 -7 6 -15 -3 -9 0 -18 8 -21 7 -3 12
-16 10 -29 -1 -14 2 -27 7 -31 5 -3 7 -10 4 -15 -4 -5 -2 -9 2 -9 5 0 9 -9 10
-20 1 -13 -3 -18 -10 -14 -7 3 -5 -1 4 -8 10 -8 15 -25 13 -41 -1 -15 1 -27 5
-27 4 0 8 -26 9 -57 1 -54 15 -79 36 -66 5 3 6 1 2 -5 -3 -6 -1 -14 5 -18 8
-4 9 -3 5 4 -4 6 4 16 16 23 21 11 22 11 9 -4 -8 -10 -9 -17 -3 -17 6 0 14 5
17 10 4 6 22 9 42 5 24 -4 32 -2 27 7 -4 7 -3 8 5 4 6 -4 8 -12 5 -18 -4 -6
-2 -8 4 -4 5 3 12 3 15 -1 2 -5 2 -3 1 4 -2 7 1 15 6 18 6 4 10 -1 10 -9 0 -8
5 -18 12 -22 8 -5 9 -2 5 9 -8 21 6 22 41 1 25 -15 25 -15 8 0 -17 14 -17 16
-4 16 9 0 20 -5 23 -10 3 -6 12 -10 18 -10 7 0 6 4 -3 11 -12 8 -11 9 5 6 11
-2 19 -8 18 -13 -1 -5 7 -10 18 -10 19 0 19 1 3 13 -16 12 -16 13 -2 13 9 0
20 -4 23 -10 3 -5 12 -10 18 -10 7 0 6 4 -3 10 -10 6 -6 9 18 8 19 -1 29 -5
25 -12 -3 -6 0 -5 8 2 7 6 22 12 34 12 18 -1 18 -2 -5 -15 -14 -8 -20 -14 -15
-15 6 0 20 7 32 15 23 16 65 14 87 -4 9 -7 19 -6 34 5 13 9 33 12 52 9 23 -4
29 -2 24 6 -4 8 -3 9 5 5 6 -4 8 -12 5 -18 -4 -6 -2 -8 4 -4 5 3 13 0 15 -6 4
-10 6 -10 6 -1 1 9 8 10 29 2 20 -8 24 -7 16 1 -6 6 -20 12 -32 13 -11 0 -19
4 -17 8 6 8 54 -1 61 -12 3 -5 11 -9 17 -9 7 0 6 4 -3 11 -12 8 -11 9 5 6 11
-2 19 -8 18 -15 -2 -6 4 -9 13 -5 13 5 13 7 2 14 -8 5 3 7 27 6 25 -2 39 -7
37 -15 -1 -6 3 -12 9 -12 6 0 8 7 5 16 -5 12 0 14 25 10 16 -2 38 -10 47 -18
12 -9 11 -5 -3 11 l-20 24 21 -11 c12 -6 25 -8 29 -4 5 4 5 2 1 -5 -3 -6 -1
-15 5 -19 8 -4 9 -3 5 4 -4 6 4 16 16 23 21 11 22 11 9 -4 -8 -10 -9 -17 -3
-17 6 0 14 5 17 10 4 6 22 9 42 5 24 -4 32 -2 27 7 -4 7 -3 8 5 4 6 -4 8 -12
5 -18 -4 -6 -2 -8 4 -4 5 3 12 1 14 -6 3 -9 6 -9 12 0 4 7 2 12 -4 12 -6 0 -8
5 -4 11 4 8 12 3 21 -12 8 -13 12 -16 9 -6 -7 21 7 22 42 1 25 -15 25 -15 8 0
-17 14 -17 16 -4 16 9 0 20 -4 23 -10 3 -5 12 -10 18 -10 7 0 6 4 -3 11 -12 8
-11 9 5 6 11 -2 19 -8 18 -15 -2 -6 4 -9 13 -5 12 4 13 8 3 13 -6 5 11 8 39 7
34 0 49 -4 45 -11 -3 -6 0 -5 8 2 7 6 22 12 34 12 18 -1 18 -2 -5 -15 -14 -8
-20 -14 -15 -15 6 0 20 7 32 15 23 16 65 14 87 -4 9 -7 19 -6 34 5 13 9 33 12
52 9 23 -4 29 -2 24 6 -4 8 -3 9 5 5 6 -4 8 -12 5 -18 -4 -6 -2 -8 4 -4 5 3
13 0 15 -6 4 -10 6 -10 6 -1 1 9 8 10 29 2 20 -8 24 -7 16 1 -6 6 -20 12 -32
13 -11 0 -19 4 -17 8 6 8 54 -1 61 -12 3 -5 11 -9 17 -9 7 0 6 4 -3 11 -12 8
-11 9 5 6 11 -2 19 -8 18 -15 -2 -6 4 -9 13 -5 12 5 13 7 3 14 -8 4 18 7 58 6
43 -2 78 -8 89 -17 16 -13 16 -11 -1 9 l-20 24 21 -11 c12 -6 25 -8 29 -4 5 4
5 2 1 -5 -3 -6 -1 -15 5 -19 8 -4 9 -3 5 4 -4 6 4 16 16 23 21 11 22 11 9 -4
-8 -10 -9 -17 -3 -17 6 0 14 5 17 10 4 6 22 9 42 5 24 -4 32 -2 27 7 -4 7 -3
8 5 4 6 -4 8 -12 5 -18 -4 -6 -2 -8 4 -4 5 3 12 1 14 -6 3 -9 6 -9 12 0 4 7 2
12 -4 12 -6 0 -8 5 -4 11 4 8 12 3 21 -12 8 -13 12 -16 9 -6 -7 21 7 22 42 1
25 -15 25 -15 8 0 -17 14 -17 16 -4 16 9 0 20 -4 23 -10 3 -5 12 -10 18 -10 7
0 6 4 -3 11 -12 8 -11 9 5 6 11 -2 19 -8 18 -15 -2 -6 4 -9 13 -5 12 4 13 8 3
13 -6 5 11 8 39 7 34 0 49 -4 45 -11 -3 -6 0 -5 8 2 7 6 22 12 34 12 18 -1 18
-2 -5 -15 -14 -8 -20 -14 -15 -15 6 0 20 7 32 15 23 16 65 14 87 -4 9 -7 19
-6 34 5 13 9 33 12 52 9 23 -4 29 -2 24 6 -4 8 -3 9 5 5 6 -4 8 -12 5 -18 -4
-6 -2 -8 4 -4 5 3 13 0 15 -6 4 -10 6 -10 6 -1 1 9 8 10 29 2 20 -8 24 -7 16
1 -6 6 -20 12 -32 13 -11 0 -19 4 -17 8 6 8 54 -1 61 -12 3 -5 11 -9 17 -9 7
0 6 4 -3 11 -12 8 -11 9 5 6 11 -2 19 -8 18 -13 -1 -5 7 -10 18 -10 19 0 19 1
3 13 -16 12 -16 13 -2 13 9 0 20 -4 23 -10 3 -5 12 -10 18 -10 7 0 6 4 -3 10
-18 12 79 8 99 -4 6 -4 17 -3 24 2 20 16 110 11 125 -7 7 -9 12 -11 11 -6 -3
23 2 35 13 32 7 -1 12 3 13 10 0 7 8 22 18 33 9 11 17 27 17 36 0 8 4 13 9 10
8 -5 25 29 22 47 -1 4 3 7 9 7 5 0 17 16 26 35 9 19 21 35 27 35 6 0 8 3 4 6
-3 4 7 26 24 50 16 24 27 44 24 44 -3 0 0 6 7 14 7 8 16 12 20 9 4 -2 5 3 2
11 -3 9 -1 16 5 16 6 0 10 3 9 8 -3 15 15 42 25 35 5 -3 7 -2 4 4 -3 5 5 26
18 46 14 20 25 39 25 42 0 3 9 15 20 27 10 12 17 25 14 30 -3 4 0 8 6 8 6 0 9
4 6 9 -4 5 -2 11 2 13 4 1 26 32 48 67 21 35 49 80 62 100 13 20 25 44 29 54
3 9 10 17 15 17 5 0 6 5 3 10 -3 6 -1 10 4 10 6 0 11 7 11 15 0 8 3 15 8 15 4
0 13 14 20 30 8 17 20 37 28 44 7 8 15 20 16 27 2 8 10 21 18 29 8 8 16 21 18
29 1 7 14 28 27 46 14 17 22 35 18 38 -3 4 -1 7 5 7 7 0 12 6 12 13 0 8 9 22
20 32 11 10 20 22 20 27 0 5 16 34 35 64 19 30 35 59 35 64 0 6 4 10 9 10 5 0
14 13 21 30 7 16 21 39 31 51 19 22 19 22 -3 38 -13 9 -25 16 -28 15 -3 0 -15
10 -28 23 -13 13 -29 23 -37 23 -8 0 -19 8 -24 18 -6 9 -11 14 -11 10 0 -5
-12 2 -26 15 -14 12 -27 20 -28 17 -1 -3 -9 2 -18 10 -9 8 -26 22 -38 30 -12
8 -29 21 -36 28 -8 7 -14 10 -14 5 0 -4 -4 -3 -8 2 -9 12 -144 103 -154 104
-5 1 -16 9 -27 20 -19 19 -55 20 -146 5 -22 -3 -56 -7 -75 -8 -19 -2 -42 -5
-50 -9 -16 -6 -17 -6 -102 -10 -31 -1 -54 -6 -51 -11 3 -4 -4 -5 -16 -1 -11 3
-21 3 -21 -2 0 -5 -17 -8 -37 -7 -21 1 -46 -2 -57 -8 -14 -7 -17 -7 -11 2 5 9
3 9 -11 2 -11 -5 -32 -10 -49 -11 -59 -3 -80 -7 -94 -15 -10 -7 -12 -6 -6 4 5
8 4 11 -3 6 -6 -3 -30 -9 -54 -12 -24 -3 -47 -7 -53 -8 -5 0 -13 -5 -17 -11
-5 -6 -8 -5 -8 3 0 8 -5 10 -12 5 -11 -6 -38 -10 -125 -16 -13 0 -23 -4 -23
-7 0 -3 -17 -6 -37 -7 -67 -2 -98 -6 -110 -16 -9 -6 -13 -5 -13 2 0 7 -5 9
-12 4 -7 -4 -29 -9 -48 -10 -46 -3 -62 -7 -79 -17 -10 -7 -12 -6 -6 4 6 9 4
11 -5 5 -13 -8 -45 -13 -112 -16 -20 -1 -36 -5 -34 -8 2 -3 -19 -7 -47 -8 -29
-1 -65 -4 -82 -7 -31 -6 -120 -16 -167 -19 -16 -1 -28 -4 -28 -7 0 -3 -17 -6
-38 -7 -95 -6 -112 -8 -112 -14 0 -3 -16 -4 -35 -3 -26 2 -34 0 -28 -9 4 -7 0
-7 -10 2 -12 9 -17 10 -17 2 0 -7 -5 -9 -11 -5 -6 3 -15 0 -20 -7 -5 -9 -9
-10 -9 -2 0 6 -8 10 -17 8 -10 -2 -18 -4 -18 -5 0 -1 -13 -3 -30 -4 -16 -2
-57 -7 -90 -11 -33 -4 -68 -7 -78 -7 -10 1 -15 -4 -11 -10 4 -6 -2 -6 -15 1
-11 7 -21 8 -21 2 0 -5 -18 -8 -40 -7 -22 0 -40 -3 -40 -8 0 -5 -3 -6 -7 -3
-3 4 -13 1 -21 -6 -13 -9 -14 -9 -8 1 4 6 2 12 -3 12 -6 0 -11 -3 -11 -7 0 -5
-19 -8 -43 -7 -23 0 -49 -3 -58 -8 -9 -4 -22 -2 -29 5 -10 9 -11 9 -6 0 7 -13
6 -14 -84 -17 -25 -1 -56 -8 -69 -15 -14 -8 -21 -9 -17 -2 4 6 3 11 -3 11 -5
0 -12 -4 -15 -9 -3 -4 -22 -7 -41 -6 -20 1 -38 -2 -41 -7 -3 -5 -13 -3 -22 4
-12 10 -14 10 -8 1 7 -13 4 -13 -96 -16 -16 -1 -25 -4 -20 -8 4 -4 147 -54
317 -112 171 -58 337 -115 370 -127 58 -20 165 -25 165 -8 0 4 7 5 15 2 8 -4
15 -2 15 3 0 5 14 8 30 7 17 -1 30 1 30 5 0 4 8 7 18 8 50 2 82 8 82 15 0 4 9
5 20 3 11 -2 22 1 26 6 4 6 11 6 20 -2 11 -9 14 -8 14 7 0 16 2 17 10 4 5 -8
10 -10 10 -5 0 10 28 16 83 18 9 1 17 4 17 8 0 4 16 6 35 4 19 -1 32 2 29 7
-4 6 31 8 85 6 50 -2 91 1 91 5 0 5 5 5 11 1 6 -3 31 -6 55 -6 32 1 43 -2 39
-11 -4 -7 0 -5 7 5 10 12 19 13 31 7 12 -7 17 -6 17 1 0 6 5 8 11 4 6 -3 29
-6 52 -6 23 1 45 -5 49 -11 5 -9 8 -8 8 3 0 12 17 15 102 13 57 -1 103 -3 103
-3 0 -1 17 -2 38 -3 20 -1 37 1 37 5 0 4 6 5 14 2 21 -8 106 -10 106 -2 0 4
14 3 30 -2 17 -5 30 -6 30 -2 0 4 51 6 112 5 62 -1 113 -3 113 -3 0 -1 17 -2
38 -3 20 -1 37 2 37 6 0 5 5 5 11 1 6 -3 39 -6 73 -5 50 1 63 -2 63 -14 0 -8
-5 -15 -11 -15 -6 0 -22 -19 -36 -42 -14 -23 -35 -51 -47 -64 -12 -12 -19 -24
-17 -27 3 -3 -4 -10 -15 -17 -12 -6 -19 -15 -16 -19 3 -5 -2 -12 -11 -15 -9
-4 -15 -9 -12 -12 5 -4 -23 -41 -64 -85 -10 -11 -15 -19 -12 -19 3 0 -1 -6 -8
-14 -28 -30 -73 -88 -72 -94 0 -4 -9 -15 -20 -24 -12 -10 -17 -17 -13 -18 4 0
2 -6 -5 -14 -7 -8 -17 -11 -22 -8 -5 3 -6 1 -3 -5 3 -5 -9 -27 -29 -48 -19
-21 -33 -40 -30 -42 2 -2 -8 -17 -22 -32 -15 -15 -34 -38 -43 -51 -14 -21 -24
-25 -73 -26 -31 0 -59 -3 -62 -7 -3 -3 -17 -2 -30 3 -13 5 -26 6 -28 1 -6 -10
-49 -7 -67 5 -7 4 -10 3 -6 -3 4 -7 -18 -10 -62 -10 -37 0 -73 -3 -79 -7 -6
-3 -13 0 -15 6 -4 10 -6 10 -6 1 -1 -7 -7 -10 -14 -7 -8 3 -25 0 -40 -5 -15
-6 -29 -6 -32 -1 -3 5 -18 5 -34 0 -16 -4 -32 -6 -34 -3 -8 8 -57 11 -57 3 0
-4 -7 -7 -15 -7 -8 0 -15 5 -15 11 0 6 -5 4 -10 -4 -5 -8 -10 -11 -10 -6 0 5
-6 3 -14 -3 -8 -7 -17 -8 -20 -3 -3 5 -22 8 -42 5 -26 -3 -34 0 -29 9 4 7 0 5
-8 -4 -10 -13 -16 -15 -25 -6 -9 9 -12 9 -12 -3 0 -12 -2 -12 -10 1 -5 8 -10
10 -10 4 0 -6 -37 -10 -104 -10 -57 1 -102 -2 -100 -5 2 -3 -19 -5 -47 -3 -39
3 -49 1 -43 -8 6 -10 5 -10 -7 -1 -11 9 -25 10 -47 4 -21 -7 -32 -6 -36 2 -3
8 -5 7 -5 -2 -1 -11 -4 -11 -16 -1 -8 7 -15 8 -15 3 0 -5 -35 -8 -77 -7 -43 0
-82 -2 -88 -5 -16 -8 -45 -8 -45 0 0 5 -12 4 -26 -1 -14 -6 -23 -6 -20 -1 7
10 -20 9 -30 -1 -3 -4 -17 -4 -30 -2 -15 3 -24 0 -24 -8 0 -9 -3 -8 -10 2 -7
11 -10 11 -10 2 0 -8 -5 -10 -12 -6 -15 10 -48 13 -48 5 0 -3 -53 -6 -118 -6
-64 0 -122 -3 -129 -8 -12 -8 -93 65 -93 84 0 5 -7 9 -15 9 -8 0 -15 4 -15 10
0 5 -15 25 -34 45 -19 19 -33 35 -31 35 2 0 -21 25 -51 55 -30 31 -54 58 -54
60 0 2 -15 19 -32 37 -31 33 -109 117 -232 253 -30 33 -72 80 -95 105 -23 25
-41 49 -41 53 0 5 -4 5 -10 2 -5 -3 -10 -1 -10 5 0 6 -10 21 -22 34 -13 12
-57 60 -98 106 -41 45 -98 108 -127 138 l-51 57 26 17 c15 10 35 18 44 18 9 0
20 5 23 10 4 6 11 8 16 5 5 -4 9 -1 9 4 0 6 7 11 15 11 8 0 23 4 33 9 29 16
116 53 127 55 6 1 16 5 23 9 6 5 12 5 12 2 0 -4 7 1 16 9 8 9 24 16 34 16 10
0 22 5 25 11 4 6 13 8 21 5 8 -3 14 -1 14 4 0 8 61 33 85 35 6 1 9 6 8 13 -2
6 3 9 11 6 8 -3 31 4 51 15 21 11 42 18 47 15 4 -3 8 0 8 5 0 6 3 10 8 9 4 -1
21 5 37 12 17 7 32 14 35 15 3 0 16 7 28 14 13 7 26 10 29 7 3 -3 12 2 20 10
8 8 19 12 24 9 5 -4 9 -1 9 4 0 6 9 11 19 11 11 0 26 6 33 13 7 8 18 12 25 10
6 -2 14 1 18 6 3 6 15 11 25 11 10 0 20 4 22 10 2 5 13 11 25 13 12 2 26 6 29
10 4 4 16 7 26 7 10 0 18 5 18 10 0 6 4 10 9 10 5 0 22 5 38 12 15 6 34 10 42
9 8 -2 10 2 5 11 -6 11 -5 11 8 0 12 -10 22 -11 35 -3 11 5 25 6 33 1 7 -4 24
-4 37 1 32 12 36 11 27 -3 -6 -10 -4 -10 7 -2 8 6 46 12 84 13 116 3 140 6
147 16 5 6 8 6 8 -1 0 -6 10 -10 23 -8 12 1 22 3 22 4 0 1 8 3 18 5 9 2 17 -1
17 -7 0 -7 4 -7 13 0 16 13 29 13 46 -1 10 -8 13 -8 8 -1 -4 8 14 12 61 13
118 2 142 4 142 11 0 10 44 6 53 -5 4 -7 10 -6 15 0 4 6 34 11 67 10 33 -1 72
2 86 6 14 4 34 2 44 -3 12 -7 16 -7 11 0 -3 6 10 9 37 8 23 -1 48 2 55 7 8 6
12 5 12 -2 0 -7 5 -9 12 -5 19 12 57 14 63 3 4 -5 13 -5 24 0 10 6 32 8 50 6
17 -2 30 -1 27 3 -2 4 34 7 80 7 46 0 84 4 84 8 0 4 9 3 20 -3 14 -8 20 -8 20
0 0 7 6 8 17 1 10 -5 26 -5 41 0 16 6 29 6 37 -1 10 -8 15 -8 20 0 4 7 18 10
31 7 13 -2 24 -1 24 3 0 9 44 5 61 -6 7 -4 10 -3 6 3 -5 7 12 10 49 9 31 0 57
1 59 4 2 3 40 5 84 5 45 0 81 2 81 5 0 3 39 5 86 5 47 0 88 3 91 8 2 4 12 3
22 -2 9 -5 23 -6 30 -2 7 5 30 7 52 6 21 -2 37 0 35 4 -3 4 12 6 32 4 27 -2
52 7 101 35 37 21 81 45 99 53 17 7 32 17 32 21 0 5 -594 8 -1320 8 -726 0
-1320 -4 -1320 -8z m-3440 -1303 c0 -5 -4 -9 -10 -9 -14 0 -50 -37 -42 -44 3
-3 0 -6 -6 -6 -6 0 -59 -47 -117 -105 -58 -58 -110 -105 -116 -105 -6 0 -9 -3
-7 -7 2 -5 -24 -35 -59 -69 -35 -33 -63 -58 -63 -55 0 3 -7 -5 -16 -17 -9 -13
-22 -21 -29 -18 -7 2 -16 2 -19 -1 -9 -10 -56 -10 -56 0 0 4 -9 3 -20 -3 -12
-6 -20 -7 -20 -1 0 10 -19 9 -37 -2 -7 -5 -17 -5 -23 -2 -5 3 -10 1 -10 -5 0
-6 -4 -8 -10 -5 -5 3 -10 2 -10 -3 0 -10 -49 -26 -57 -19 -2 3 2 21 11 40 18
44 121 147 146 147 6 0 10 4 10 8 0 4 23 21 52 36 28 15 58 34 65 42 8 8 19
12 24 9 5 -4 9 -2 9 3 0 5 23 19 52 33 28 13 61 33 71 44 11 11 17 15 13 8 -4
-7 5 -6 24 3 16 9 30 20 30 25 0 6 5 7 10 4 6 -4 16 -2 23 3 30 24 109 62 118
57 5 -4 9 -1 9 5 0 12 41 30 53 23 4 -2 7 -8 7 -14z m3320 -994 c0 -11 -31
-11 -39 -1 -9 10 -6 12 14 8 14 -2 25 -6 25 -7z m960 0 c0 -11 -31 -11 -39 -1
-9 10 -6 12 14 8 14 -2 25 -6 25 -7z m960 0 c0 -11 -31 -11 -39 -1 -9 10 -6
12 14 8 14 -2 25 -6 25 -7z m375 -3 c-3 -3 -11 0 -18 7 -9 10 -8 11 6 5 10 -3
15 -9 12 -12z"/>
<path d="M200 2660 c-8 -5 -10 -10 -5 -10 6 0 17 5 25 10 8 5 11 10 5 10 -5 0
-17 -5 -25 -10z"/>
<path d="M915 2660 c3 -5 8 -10 11 -10 2 0 4 5 4 10 0 6 -5 10 -11 10 -5 0 -7
-4 -4 -10z"/>
<path d="M1120 2660 c-9 -6 -10 -10 -3 -10 6 0 15 5 18 10 8 12 4 12 -15 0z"/>
<path d="M3685 2660 c-3 -6 1 -7 9 -4 18 7 21 14 7 14 -6 0 -13 -4 -16 -10z"/>
<path d="M4085 2660 c-3 -6 1 -7 9 -4 18 7 21 14 7 14 -6 0 -13 -4 -16 -10z"/>
<path d="M4205 2660 c-3 -6 1 -7 9 -4 18 7 21 14 7 14 -6 0 -13 -4 -16 -10z"/>
<path d="M4440 2660 c-9 -6 -10 -10 -3 -10 6 0 15 5 18 10 8 12 4 12 -15 0z"/>
<path d="M4645 2660 c-3 -6 1 -7 9 -4 18 7 21 14 7 14 -6 0 -13 -4 -16 -10z"/>
<path d="M4920 2660 c-9 -6 -10 -10 -3 -10 6 0 15 5 18 10 8 12 4 12 -15 0z"/>
<path d="M5045 2660 c-3 -6 1 -7 9 -4 18 7 21 14 7 14 -6 0 -13 -4 -16 -10z"/>
<path d="M5165 2660 c-3 -6 1 -7 9 -4 18 7 21 14 7 14 -6 0 -13 -4 -16 -10z"/>
<path d="M5400 2660 c-9 -6 -10 -10 -3 -10 6 0 15 5 18 10 8 12 4 12 -15 0z"/>
<path d="M5440 2660 c-8 -5 -10 -10 -5 -10 6 0 17 5 25 10 8 5 11 10 5 10 -5
0 -17 -5 -25 -10z"/>
<path d="M5605 2660 c-3 -6 1 -7 9 -4 18 7 21 14 7 14 -6 0 -13 -4 -16 -10z"/>
<path d="M5880 2660 c-9 -6 -10 -10 -3 -10 6 0 15 5 18 10 8 12 4 12 -15 0z"/>
<path d="M6005 2660 c-3 -6 1 -7 9 -4 18 7 21 14 7 14 -6 0 -13 -4 -16 -10z"/>
<path d="M6125 2660 c-3 -6 1 -7 9 -4 18 7 21 14 7 14 -6 0 -13 -4 -16 -10z"/>
<path d="M6400 2660 c-8 -5 -10 -10 -5 -10 6 0 17 5 25 10 8 5 11 10 5 10 -5
0 -17 -5 -25 -10z"/>
</g>
</svg>
